<?xml version="1.0" standalone="no"?>
<!DOCTYPE svg PUBLIC "-//W3C//DTD SVG 20010904//EN"
 "http://www.w3.org/TR/2001/REC-SVG-20010904/DTD/svg10.dtd">
<svg version="1.0" xmlns="http://www.w3.org/2000/svg"
 width="180.000000pt" height="168.000000pt" viewBox="0 0 180.000000 168.000000"
 preserveAspectRatio="xMidYMid meet">

<g transform="translate(0.000000,168.000000) scale(0.100000,-0.100000)"
fill="#000000" stroke="none">
<path d="M90 1091 c0 -5 -12 -12 -27 -14 -26 -4 -26 -4 5 -6 22 -1 32 3 32 14
0 8 -2 15 -5 15 -3 0 -5 -4 -5 -9z"/>
<path d="M128 1073 c7 -3 16 -2 19 1 4 3 -2 6 -13 5 -11 0 -14 -3 -6 -6z"/>
<path d="M241 1037 l4 -42 -37 4 c-23 2 -38 -1 -38 -8 0 -6 16 -11 35 -11 34
0 35 -1 35 -41 0 -28 4 -39 12 -37 8 3 12 19 10 41 l-4 37 42 0 c27 0 39 4 35
11 -4 6 -21 9 -38 7 -33 -3 -33 -3 -36 52 0 17 -6 30 -12 30 -7 0 -10 -16 -8
-43z"/>
<path d="M92 1040 c0 -14 2 -19 5 -12 2 6 2 18 0 25 -3 6 -5 1 -5 -13z"/>
<path d="M1610 850 c0 -144 2 -170 15 -170 13 0 15 26 15 170 0 144 -2 170
-15 170 -13 0 -15 -26 -15 -170z"/>
<path d="M1290 851 l0 -129 39 -7 c86 -14 144 41 121 117 -12 43 -34 58 -84
58 -36 0 -36 0 -36 45 0 38 -3 45 -20 45 -19 0 -20 -7 -20 -129z m120 -16 c10
-18 11 -33 4 -53 -8 -22 -16 -28 -47 -30 l-37 -3 0 55 0 56 33 0 c26 0 37 -6
47 -25z"/>
<path d="M650 915 l0 -55 -50 0 c-38 0 -50 -4 -50 -15 0 -11 12 -15 50 -15
l50 0 0 -60 c0 -50 3 -60 18 -60 14 0 17 9 17 58 l0 57 53 3 c37 2 52 7 52 18
0 10 -13 14 -50 14 -45 0 -50 2 -56 25 -3 14 -4 39 -2 55 4 24 1 30 -14 30
-15 0 -18 -8 -18 -55z"/>
<path d="M330 880 c0 -25 -4 -30 -25 -30 -14 0 -25 -4 -25 -10 0 -5 11 -10 25
-10 20 0 25 -5 25 -25 0 -14 5 -25 10 -25 6 0 10 11 10 25 0 20 5 25 25 25 14
0 25 5 25 10 0 6 -11 10 -25 10 -21 0 -25 5 -25 30 0 17 -4 30 -10 30 -5 0
-10 -13 -10 -30z"/>
<path d="M1040 893 c-65 -7 -80 -13 -96 -44 -41 -80 21 -150 116 -134 l40 7 0
89 c0 65 -3 89 -12 87 -7 0 -29 -3 -48 -5z m20 -88 l0 -55 -35 0 c-24 0 -37 6
-45 19 -25 47 0 91 51 91 29 0 29 -1 29 -55z"/>
<path d="M240 750 c0 -39 -1 -40 -35 -40 -19 0 -35 -4 -35 -10 0 -5 16 -10 35
-10 34 0 35 -1 35 -40 0 -29 4 -40 15 -40 11 0 15 11 15 40 0 39 1 40 35 40
19 0 35 5 35 10 0 6 -16 10 -35 10 -34 0 -35 1 -35 40 0 29 -4 40 -15 40 -11
0 -15 -11 -15 -40z"/>
<path d="M0 700 c0 -5 7 -10 15 -10 8 0 15 5 15 10 0 6 -7 10 -15 10 -8 0 -15
-4 -15 -10z"/>
<path d="M90 650 c0 -25 -4 -30 -25 -30 -14 0 -25 -4 -25 -10 0 -5 11 -10 25
-10 20 0 25 -5 25 -25 0 -14 5 -25 10 -25 6 0 10 11 10 25 0 20 5 25 25 25 14
0 25 5 25 10 0 6 -11 10 -25 10 -21 0 -25 5 -25 30 0 17 -4 30 -10 30 -5 0
-10 -13 -10 -30z"/>
</g>
</svg>
